# Blender v2.81 (sub 16) OBJ File: ''
# www.blender.org
mtllib try.mtl
o Cube_Cube.003
v -1.000000 -1.000000 1.000000
v -1.000000 1.000000 1.000000
v -1.000000 -1.000000 -1.000000
v -1.000000 1.000000 -1.000000
v 1.000000 -1.000000 1.000000
v 1.000000 1.000000 1.000000
v 1.000000 -1.000000 -1.000000
v 1.000000 1.000000 -1.000000
v -0.547894 -0.547894 1.393983
v -0.547894 0.547894 1.393983
v 0.547894 0.547894 1.393983
v 0.547894 -0.547894 1.393983
v -0.547894 -0.547894 1.834711
v -0.547894 0.547894 1.834711
v 0.547894 0.547894 1.834711
v 0.547894 -0.547894 1.834711
v -1.211243 -1.211243 2.566592
v -1.211243 1.211243 2.566592
v 1.211243 1.211243 2.566592
v 1.211243 -1.211243 2.566592
vt 0.375000 0.000000
vt 0.625000 0.000000
vt 0.625000 0.250000
vt 0.375000 0.250000
vt 0.625000 0.500000
vt 0.375000 0.500000
vt 0.625000 0.750000
vt 0.375000 0.750000
vt 0.875000 0.750000
vt 0.875000 0.750000
vt 0.625000 0.750000
vt 0.125000 0.500000
vt 0.125000 0.750000
vt 0.875000 0.500000
vt 0.375000 0.750000
vt 0.625000 0.750000
vt 0.375000 0.750000
vt 0.375000 0.000000
vt 0.625000 0.000000
vt 0.125000 0.750000
vt 0.125000 0.750000
vt 0.375000 0.750000
vt 0.125000 0.750000
vt 0.375000 0.000000
vt 0.625000 0.000000
vt 0.875000 0.750000
vt 0.625000 0.750000
vt 0.625000 1.000000
vt 0.375000 1.000000
vt 0.375000 0.000000
vt 0.625000 0.000000
vt 0.875000 0.750000
vn -1.0000 0.0000 0.0000
vn 0.0000 0.0000 -1.0000
vn 1.0000 0.0000 0.0000
vn 0.0000 0.6570 0.7539
vn 0.0000 -1.0000 0.0000
vn 0.0000 1.0000 0.0000
vn 0.6570 0.0000 0.7539
vn -0.6570 0.0000 0.7539
vn 0.0000 -0.6570 0.7539
vn 0.0000 -0.7409 -0.6716
vn 0.0000 0.0000 1.0000
vn -0.7409 0.0000 -0.6716
vn 0.0000 0.7409 -0.6716
vn 0.7409 0.0000 -0.6716
usemtl None
s off
f 1/1/1 2/2/1 4/3/1 3/4/1
f 3/4/2 4/3/2 8/5/2 7/6/2
f 7/6/3 8/5/3 6/7/3 5/8/3
f 6/7/4 2/9/4 10/10/4 11/11/4
f 3/12/5 7/6/5 5/8/5 1/13/5
f 8/5/6 4/14/6 2/9/6 6/7/6
f 12/15/3 11/11/3 15/16/3 16/17/3
f 5/8/7 6/7/7 11/11/7 12/15/7
f 2/2/8 1/1/8 9/18/8 10/19/8
f 1/13/9 5/8/9 12/15/9 9/20/9
f 13/21/10 16/17/10 20/22/10 17/23/10
f 9/20/5 12/15/5 16/17/5 13/21/5
f 10/19/1 9/18/1 13/24/1 14/25/1
f 11/11/6 10/10/6 14/26/6 15/16/6
f 20/22/11 19/27/11 18/28/11 17/29/11
f 14/25/12 13/24/12 17/30/12 18/31/12
f 15/16/13 14/26/13 18/32/13 19/27/13
f 16/17/14 15/16/14 19/27/14 20/22/14
